{
	"asset":{
		"generator":"Khronos glTF Blender I/O v4.3.47",
		"version":"2.0"
	},
	"scene":0,
	"scenes":[
		{
			"name":"Scene",
			"nodes":[
				0
			]
		}
	],
	"nodes":[
		{
			"mesh":0,
			"name":"Text"
		}
	],
	"meshes":[
		{
			"name":"Text",
			"primitives":[
				{
					"attributes":{
						"POSITION":0,
						"NORMAL":1,
						"TEXCOORD_0":2
					},
					"indices":3
				}
			]
		}
	],
	"accessors":[
		{
			"bufferView":0,
			"componentType":5126,
			"count":2406,
			"max":[
				3.385999917984009,
				0.11999998986721039,
				0.009000000543892384
			],
			"min":[
				0.04800000041723251,
				-0.11999998986721039,
				-0.6910000443458557
			],
			"type":"VEC3"
		},
		{
			"bufferView":1,
			"componentType":5126,
			"count":2406,
			"type":"VEC3"
		},
		{
			"bufferView":2,
			"componentType":5126,
			"count":2406,
			"type":"VEC2"
		},
		{
			"bufferView":3,
			"componentType":5123,
			"count":7104,
			"type":"SCALAR"
		}
	],
	"bufferViews":[
		{
			"buffer":0,
			"byteLength":28872,
			"byteOffset":0,
			"target":34962
		},
		{
			"buffer":0,
			"byteLength":28872,
			"byteOffset":28872,
			"target":34962
		},
		{
			"buffer":0,
			"byteLength":19248,
			"byteOffset":57744,
			"target":34962
		},
		{
			"buffer":0,
			"byteLength":14208,
			"byteOffset":76992,
			"target":34963
		}
	],
	"buffers":[
		{
			"byteLength":91200,
			"uri":"cis5650.bin"
		}
	]
}
